<mxfile host="app.diagrams.net" modified="2024-07-03T02:40:45.737Z" agent="Mozilla/5.0 (Windows NT 10.0; Win64; x64) AppleWebKit/537.36 (KHTML, like Gecko) Chrome/126.0.0.0 Safari/537.36" etag="ZlrUbPuztQnhKiS_TDFW" version="24.6.4" type="device">
  <diagram name="第 1 页" id="vec3bR0r-u0DjWlboLGP">
    <mxGraphModel dx="2261" dy="738" grid="1" gridSize="10" guides="1" tooltips="1" connect="1" arrows="1" fold="1" page="1" pageScale="1" pageWidth="827" pageHeight="1169" math="0" shadow="0">
      <root>
        <mxCell id="0" />
        <mxCell id="1" parent="0" />
        <mxCell id="x5Shr0YdNZGXkqfEMWZu-1" value="开始" style="ellipse;whiteSpace=wrap;html=1;" vertex="1" parent="1">
          <mxGeometry x="-260" y="240" width="120" height="80" as="geometry" />
        </mxCell>
        <mxCell id="x5Shr0YdNZGXkqfEMWZu-5" value="" style="edgeStyle=orthogonalEdgeStyle;rounded=0;orthogonalLoop=1;jettySize=auto;html=1;entryX=0;entryY=0.5;entryDx=0;entryDy=0;" edge="1" parent="1" source="x5Shr0YdNZGXkqfEMWZu-2" target="x5Shr0YdNZGXkqfEMWZu-4">
          <mxGeometry relative="1" as="geometry" />
        </mxCell>
        <mxCell id="x5Shr0YdNZGXkqfEMWZu-2" value="持久化模型规则PKL文件" style="shape=cylinder3;whiteSpace=wrap;html=1;boundedLbl=1;backgroundOutline=1;size=15;" vertex="1" parent="1">
          <mxGeometry x="-80" y="240" width="60" height="80" as="geometry" />
        </mxCell>
        <mxCell id="x5Shr0YdNZGXkqfEMWZu-7" value="" style="edgeStyle=orthogonalEdgeStyle;rounded=0;orthogonalLoop=1;jettySize=auto;html=1;" edge="1" parent="1" source="x5Shr0YdNZGXkqfEMWZu-4" target="x5Shr0YdNZGXkqfEMWZu-6">
          <mxGeometry relative="1" as="geometry" />
        </mxCell>
        <mxCell id="x5Shr0YdNZGXkqfEMWZu-4" value="读取PKL模型文件" style="whiteSpace=wrap;html=1;" vertex="1" parent="1">
          <mxGeometry x="80" y="250" width="120" height="60" as="geometry" />
        </mxCell>
        <mxCell id="x5Shr0YdNZGXkqfEMWZu-9" value="" style="edgeStyle=orthogonalEdgeStyle;rounded=0;orthogonalLoop=1;jettySize=auto;html=1;" edge="1" parent="1" source="x5Shr0YdNZGXkqfEMWZu-6">
          <mxGeometry relative="1" as="geometry">
            <mxPoint x="310" y="370" as="targetPoint" />
          </mxGeometry>
        </mxCell>
        <mxCell id="x5Shr0YdNZGXkqfEMWZu-6" value="传入流日志信息，执行模型识别函数" style="whiteSpace=wrap;html=1;" vertex="1" parent="1">
          <mxGeometry x="250" y="250" width="120" height="60" as="geometry" />
        </mxCell>
        <mxCell id="x5Shr0YdNZGXkqfEMWZu-13" style="edgeStyle=orthogonalEdgeStyle;rounded=0;orthogonalLoop=1;jettySize=auto;html=1;exitX=1;exitY=0.5;exitDx=0;exitDy=0;entryX=0;entryY=0.5;entryDx=0;entryDy=0;entryPerimeter=0;" edge="1" parent="1" source="x5Shr0YdNZGXkqfEMWZu-1" target="x5Shr0YdNZGXkqfEMWZu-2">
          <mxGeometry relative="1" as="geometry" />
        </mxCell>
        <mxCell id="x5Shr0YdNZGXkqfEMWZu-20" value="是" style="edgeStyle=orthogonalEdgeStyle;rounded=0;orthogonalLoop=1;jettySize=auto;html=1;" edge="1" parent="1" source="x5Shr0YdNZGXkqfEMWZu-14" target="x5Shr0YdNZGXkqfEMWZu-19">
          <mxGeometry relative="1" as="geometry" />
        </mxCell>
        <mxCell id="x5Shr0YdNZGXkqfEMWZu-14" value="根据子模型判断上下文规则是否符合" style="rhombus;whiteSpace=wrap;html=1;" vertex="1" parent="1">
          <mxGeometry x="233" y="640" width="154" height="120" as="geometry" />
        </mxCell>
        <mxCell id="x5Shr0YdNZGXkqfEMWZu-28" value="" style="edgeStyle=orthogonalEdgeStyle;rounded=0;orthogonalLoop=1;jettySize=auto;html=1;" edge="1" parent="1" source="x5Shr0YdNZGXkqfEMWZu-17" target="x5Shr0YdNZGXkqfEMWZu-27">
          <mxGeometry relative="1" as="geometry" />
        </mxCell>
        <mxCell id="x5Shr0YdNZGXkqfEMWZu-17" value="循环读取子模型信息" style="rounded=0;whiteSpace=wrap;html=1;" vertex="1" parent="1">
          <mxGeometry x="250" y="370" width="120" height="70" as="geometry" />
        </mxCell>
        <mxCell id="x5Shr0YdNZGXkqfEMWZu-25" value="" style="edgeStyle=orthogonalEdgeStyle;rounded=0;orthogonalLoop=1;jettySize=auto;html=1;" edge="1" parent="1" source="x5Shr0YdNZGXkqfEMWZu-19" target="x5Shr0YdNZGXkqfEMWZu-24">
          <mxGeometry relative="1" as="geometry" />
        </mxCell>
        <mxCell id="x5Shr0YdNZGXkqfEMWZu-19" value="根据模型规则识别当前流日志信息" style="whiteSpace=wrap;html=1;" vertex="1" parent="1">
          <mxGeometry x="16" y="670" width="120" height="60" as="geometry" />
        </mxCell>
        <mxCell id="x5Shr0YdNZGXkqfEMWZu-24" value="全局变量存储" style="whiteSpace=wrap;html=1;" vertex="1" parent="1">
          <mxGeometry x="16" y="910" width="120" height="60" as="geometry" />
        </mxCell>
        <mxCell id="x5Shr0YdNZGXkqfEMWZu-29" value="否" style="edgeStyle=orthogonalEdgeStyle;rounded=0;orthogonalLoop=1;jettySize=auto;html=1;exitX=0.5;exitY=1;exitDx=0;exitDy=0;entryX=0.5;entryY=0;entryDx=0;entryDy=0;" edge="1" parent="1" source="x5Shr0YdNZGXkqfEMWZu-27" target="x5Shr0YdNZGXkqfEMWZu-14">
          <mxGeometry relative="1" as="geometry" />
        </mxCell>
        <mxCell id="x5Shr0YdNZGXkqfEMWZu-32" value="是" style="edgeStyle=orthogonalEdgeStyle;rounded=0;orthogonalLoop=1;jettySize=auto;html=1;" edge="1" parent="1" source="x5Shr0YdNZGXkqfEMWZu-27" target="x5Shr0YdNZGXkqfEMWZu-31">
          <mxGeometry relative="1" as="geometry" />
        </mxCell>
        <mxCell id="x5Shr0YdNZGXkqfEMWZu-27" value="循环是否完毕" style="rhombus;whiteSpace=wrap;html=1;rounded=0;" vertex="1" parent="1">
          <mxGeometry x="250" y="490" width="120" height="80" as="geometry" />
        </mxCell>
        <mxCell id="x5Shr0YdNZGXkqfEMWZu-30" style="edgeStyle=orthogonalEdgeStyle;rounded=0;orthogonalLoop=1;jettySize=auto;html=1;exitX=0;exitY=0.5;exitDx=0;exitDy=0;entryX=0;entryY=0.414;entryDx=0;entryDy=0;entryPerimeter=0;" edge="1" parent="1" source="x5Shr0YdNZGXkqfEMWZu-24" target="x5Shr0YdNZGXkqfEMWZu-17">
          <mxGeometry relative="1" as="geometry" />
        </mxCell>
        <mxCell id="x5Shr0YdNZGXkqfEMWZu-34" value="" style="edgeStyle=orthogonalEdgeStyle;rounded=0;orthogonalLoop=1;jettySize=auto;html=1;" edge="1" parent="1" source="x5Shr0YdNZGXkqfEMWZu-31" target="x5Shr0YdNZGXkqfEMWZu-33">
          <mxGeometry relative="1" as="geometry" />
        </mxCell>
        <mxCell id="x5Shr0YdNZGXkqfEMWZu-31" value="循环结束" style="whiteSpace=wrap;html=1;rounded=0;" vertex="1" parent="1">
          <mxGeometry x="530" y="500" width="120" height="60" as="geometry" />
        </mxCell>
        <mxCell id="x5Shr0YdNZGXkqfEMWZu-37" value="" style="edgeStyle=orthogonalEdgeStyle;rounded=0;orthogonalLoop=1;jettySize=auto;html=1;" edge="1" parent="1" source="x5Shr0YdNZGXkqfEMWZu-33" target="x5Shr0YdNZGXkqfEMWZu-36">
          <mxGeometry relative="1" as="geometry" />
        </mxCell>
        <mxCell id="x5Shr0YdNZGXkqfEMWZu-33" value="输出模型结果" style="whiteSpace=wrap;html=1;rounded=0;" vertex="1" parent="1">
          <mxGeometry x="530" y="650" width="120" height="60" as="geometry" />
        </mxCell>
        <mxCell id="x5Shr0YdNZGXkqfEMWZu-35" value="否" style="edgeStyle=orthogonalEdgeStyle;rounded=0;orthogonalLoop=1;jettySize=auto;html=1;exitX=1;exitY=0.5;exitDx=0;exitDy=0;entryX=1;entryY=0.5;entryDx=0;entryDy=0;" edge="1" parent="1" source="x5Shr0YdNZGXkqfEMWZu-14" target="x5Shr0YdNZGXkqfEMWZu-17">
          <mxGeometry relative="1" as="geometry">
            <mxPoint x="380" y="405" as="targetPoint" />
            <Array as="points">
              <mxPoint x="407" y="700" />
              <mxPoint x="407" y="405" />
            </Array>
          </mxGeometry>
        </mxCell>
        <mxCell id="x5Shr0YdNZGXkqfEMWZu-36" value="结束" style="ellipse;whiteSpace=wrap;html=1;rounded=0;" vertex="1" parent="1">
          <mxGeometry x="535" y="780" width="110" height="80" as="geometry" />
        </mxCell>
      </root>
    </mxGraphModel>
  </diagram>
</mxfile>
